HIERARCHY
ROOT Hips
{
	OFFSET 0.000000 0.000000 0.000000
	CHANNELS 6 Xposition Yposition Zposition Xrotation Yrotation Zrotation
	JOINT LeftUpLeg_virtual
	{
		OFFSET 0.000000 0.000000 0.000000
		CHANNELS 3 Xrotation Yrotation Zrotation
		JOINT LeftUpLeg
		{
			OFFSET 13.026900 -6.336304 -1.092800
			CHANNELS 3 Xrotation Yrotation Zrotation
			JOINT LeftLeg
			{
				OFFSET 0.524474 -46.096886 9.782700
				CHANNELS 3 Xrotation Yrotation Zrotation
				JOINT LeftFoot
				{
					OFFSET -0.524474 -53.427422 -12.948200
					CHANNELS 3 Xrotation Yrotation Zrotation
					JOINT LeftToeBase
					{
						OFFSET 0.192200 -14.009700 16.364100
						CHANNELS 3 Xrotation Yrotation Zrotation
						JOINT LeftToe_End
						{
							OFFSET -1.784700 -0.561700 9.474800
							CHANNELS 3 Xrotation Yrotation Zrotation
							End Site
							{
								OFFSET 0 0 0
							}
						}
					}
				}
			}
		}
	}
	JOINT RightUpLeg_virtual
	{
		OFFSET 0.000000 0.000000 0.000000
		CHANNELS 3 Xrotation Yrotation Zrotation
		JOINT RightUpLeg
		{
			OFFSET -12.883000 -6.336304 -1.092800
			CHANNELS 3 Xrotation Yrotation Zrotation
			JOINT RightLeg
			{
				OFFSET -0.524587 -46.096825 9.782800
				CHANNELS 3 Xrotation Yrotation Zrotation
				JOINT RightFoot
				{
					OFFSET 0.524587 -53.427383 -12.948300
					CHANNELS 3 Xrotation Yrotation Zrotation
					JOINT RightToeBase
					{
						OFFSET -0.192200 -14.009700 16.364100
						CHANNELS 3 Xrotation Yrotation Zrotation
						JOINT RightToe_End
						{
							OFFSET 1.784700 -0.561700 9.474800
							CHANNELS 3 Xrotation Yrotation Zrotation
							End Site
							{
								OFFSET 0 0 0
							}
						}
					}
				}
			}
		}
	}
	JOINT Spine_virtual
	{
		OFFSET 0.000000 0.000000 0.000000
		CHANNELS 3 Xrotation Yrotation Zrotation
		JOINT Spine
		{
			OFFSET 0.072000 7.257294 -0.789700
			CHANNELS 3 Xrotation Yrotation Zrotation
			JOINT Spine1
			{
				OFFSET 0.000000 12.508769 -0.658067
				CHANNELS 3 Xrotation Yrotation Zrotation
				JOINT Spine1_split
				{
					OFFSET 0.000000 12.508769 -0.658067
					CHANNELS 3 Xrotation Yrotation Zrotation
					JOINT Spine2
					{
						OFFSET 0.000000 12.508769 -0.658067
						CHANNELS 3 Xrotation Yrotation Zrotation
						JOINT Neck_virtual
						{
							OFFSET 0.000000 0.000000 0.000000
							CHANNELS 3 Xrotation Yrotation Zrotation
							JOINT Neck
							{
								OFFSET 0.000000 14.033295 7.520400
								CHANNELS 3 Xrotation Yrotation Zrotation
								JOINT Head
								{
									OFFSET 0.000000 8.198502 5.703100
									CHANNELS 3 Xrotation Yrotation Zrotation
									JOINT HeadTop_End
									{
										OFFSET 0.000000 17.760803 13.332701
										CHANNELS 3 Xrotation Yrotation Zrotation
										End Site
										{
											OFFSET 0 0 0
										}
									}
								}
							}
						}
						JOINT LeftShoulder_virtual
						{
							OFFSET 0.000000 0.000000 0.000000
							CHANNELS 3 Xrotation Yrotation Zrotation
							JOINT LeftShoulder
							{
								OFFSET 6.292450 5.785301 -0.669000
								CHANNELS 3 Xrotation Yrotation Zrotation
								JOINT LeftShoulder_split
								{
									OFFSET 6.292450 5.785301 -0.669000
									CHANNELS 3 Xrotation Yrotation Zrotation
									JOINT LeftArm
									{
										OFFSET 13.907140 -6.093903 1.965100
										CHANNELS 3 Xrotation Yrotation Zrotation
										JOINT LeftForeArm
										{
											OFFSET 34.140198 0.000000 0.000000
											CHANNELS 3 Xrotation Yrotation Zrotation
											JOINT LeftHand
											{
												OFFSET 40.960209 0.000000 0.000000
												CHANNELS 3 Xrotation Yrotation Zrotation
												End Site
												{
													OFFSET 0 0 0
												}
											}
										}
									}
								}
							}
						}
						JOINT RightShoulder_virtual
						{
							OFFSET 0.000000 0.000000 0.000000
							CHANNELS 3 Xrotation Yrotation Zrotation
							JOINT RightShoulder
							{
								OFFSET -6.292450 5.785301 -0.669000
								CHANNELS 3 Xrotation Yrotation Zrotation
								JOINT RightShoulder_split
								{
									OFFSET -6.292450 5.785301 -0.669000
									CHANNELS 3 Xrotation Yrotation Zrotation
									JOINT RightArm
									{
										OFFSET -13.907140 -6.093903 1.965100
										CHANNELS 3 Xrotation Yrotation Zrotation
										JOINT RightForeArm
										{
											OFFSET -34.140198 0.000000 0.000000
											CHANNELS 3 Xrotation Yrotation Zrotation
											JOINT RightHand
											{
												OFFSET -40.960209 0.000000 0.000000
												CHANNELS 3 Xrotation Yrotation Zrotation
												End Site
												{
													OFFSET 0 0 0
												}
											}
										}
									}
								}
							}
						}
					}
				}
			}
		}
	}
}
MOTION
Frames: 4
Frame Time: 0.03333333
-0.712110 129.339813 212.106781 0.000000 0.000000 0.000000 13.999386 22.926126 -3.028850 -12.043035 8.043063 12.003305 33.167685 21.731758 -1.841899 16.339693 -3.102110 -13.612064 -39.136424 3.034804 -4.091160 0.000000 0.000000 0.000000 14.738715 23.733616 -2.511793 -49.463752 -9.623200 -12.535088 33.167498 -0.894860 2.349842 17.848587 -3.837711 9.186575 -8.797491 3.537577 -10.023552 0.000000 0.000000 0.000000 14.479567 24.265306 -3.251584 10.153971 -3.011987 13.207459 -10.989105 -4.568619 -2.436568 -0.079855 -0.316925 -0.139825 0.000000 0.000000 0.000000 -4.149985 -1.074592 -0.086452 3.485345 33.203752 -17.806474 -34.700797 -32.242290 -21.683878 0.000000 0.000000 0.000000 -6.215677 -2.348340 -2.273192 18.975845 -7.048753 36.262755 3.256801 3.370554 1.899401 -68.089678 -11.770357 16.881977 -33.352196 -20.654144 -5.348421 0.000000 0.000000 0.000000 -6.143847 -2.071496 1.917082 -1.055140 -1.970050 -39.991929 9.326535 -4.739774 -5.541108 -109.598622 13.344955 18.660046 -62.369142 51.124775 51.815908 0.000000 0.000000 0.000000 
-0.917950 124.423897 222.134918 0.000000 0.000000 0.000000 10.894332 25.535630 -3.109447 -11.980642 6.698503 13.443132 35.692619 23.568217 -3.656231 15.915155 -3.311776 -12.304992 -39.794922 3.717698 -5.743153 0.000000 0.000000 0.000000 11.684337 26.069787 -2.800606 -50.835756 -9.743109 -12.222264 36.222505 -1.440112 1.752511 13.824202 -2.447375 4.077477 -5.703548 2.324049 -11.154726 0.000000 0.000000 0.000000 11.978867 26.323699 -3.463225 9.820447 -3.731417 12.738538 -10.915472 -5.105084 -2.390346 -0.005241 -0.007223 -0.137538 0.000000 0.000000 0.000000 -4.343403 -1.599163 -0.457764 3.929402 34.530336 -16.995717 -33.219643 -31.387376 -19.601065 0.000000 0.000000 0.000000 -6.032298 -3.015593 -2.128082 19.518908 -7.328971 37.149549 2.434224 3.305558 2.999338 -65.536389 -8.860251 21.031030 -35.294203 -18.282350 -5.759903 0.000000 0.000000 0.000000 -6.189346 -2.576531 1.789677 -0.492866 -1.381880 -41.104901 9.327088 -5.000577 -4.588937 -105.996162 15.490200 13.601576 -52.944044 48.813682 40.873665 0.000000 0.000000 0.000000 
-1.138818 120.612549 231.533295 0.000000 0.000000 0.000000 7.739500 28.224620 -3.009504 -14.179521 6.859450 14.599963 38.199643 25.016183 -5.470818 13.034655 -3.397081 -9.287468 -34.746053 4.012928 -7.477842 0.000000 0.000000 0.000000 8.705109 28.435271 -2.940942 -50.755245 -10.761757 -11.763179 35.871313 -2.272444 1.064004 12.074120 -1.166491 0.545758 -4.735835 1.376196 -11.668346 0.000000 0.000000 0.000000 9.476345 28.583230 -3.766775 9.439222 -4.315801 12.160255 -10.474872 -5.531030 -2.056595 0.127996 0.311601 -0.152193 0.000000 0.000000 0.000000 -4.265570 -2.021079 -0.599149 3.840740 35.704097 -16.139556 -31.940611 -30.914584 -18.137998 0.000000 0.000000 0.000000 -5.375625 -3.626513 -1.602010 19.803269 -7.448403 38.045690 2.255661 2.782905 3.709825 -62.066359 -5.163872 24.883368 -37.060825 -16.033299 -6.030549 0.000000 0.000000 0.000000 -5.890764 -3.132784 1.729608 0.303692 -0.849896 -41.506025 9.035740 -5.520358 -3.689944 -101.007358 16.777769 8.461947 -46.678971 46.439108 33.354597 0.000000 0.000000 0.000000 
-1.386205 118.572716 240.723938 0.000000 0.000000 0.000000 5.139317 31.073597 -3.017874 -17.653129 8.085137 15.193863 39.008392 25.051529 -6.503826 9.460218 -4.741448 -5.653097 -28.395663 3.444105 -7.946303 0.000000 0.000000 0.000000 6.213587 31.006665 -3.177871 -48.873740 -12.580476 -10.938251 31.869140 -3.204556 0.249081 12.130024 -0.088675 -1.336982 -5.617131 0.703748 -11.664058 0.000000 0.000000 0.000000 7.378318 30.820853 -4.202437 8.728061 -4.905496 11.496021 -9.821686 -5.788649 -1.536386 0.201643 0.512987 -0.170537 0.000000 0.000000 0.000000 -3.968675 -2.275074 -0.553285 3.876880 36.639153 -15.578782 -30.604449 -30.867862 -17.256627 0.000000 0.000000 0.000000 -4.437697 -4.116879 -0.767079 19.871730 -7.366909 39.148920 2.334155 2.137693 4.125553 -59.302523 -1.198985 27.522486 -38.547300 -15.202644 -6.489641 0.000000 0.000000 0.000000 -5.357121 -3.646488 1.710821 1.092849 -0.494263 -41.170096 9.247198 -5.864698 -2.929858 -95.864369 16.530788 3.702486 -44.728761 46.481941 30.734454 0.000000 0.000000 0.000000 
